<svg width="91" height="32" viewBox="0 0 91 32" fill="none" xmlns="http://www.w3.org/2000/svg">
<path fill-rule="evenodd" clip-rule="evenodd" d="M30.2418 0.786621C15.9155 13.2612 14.5113 13.2612 0.187588 0.786621L0 0.974209C12.4746 15.2979 12.4746 16.7021 0 31.0285L0.187588 31.2134C14.5113 18.7388 15.9155 18.7388 30.2418 31.2134L30.4267 31.0285C17.9548 16.7021 17.9548 15.2979 30.4267 0.974209L30.2418 0.786621ZM57.782 22.7447V14.5016H55.4211V11.7816H57.782V8.49877L60.8799 7.26605V11.7816H63.7688V14.5016H60.8799V21.9756C60.8799 22.9511 61.3516 23.6612 62.2359 23.6612C62.8255 23.6612 63.3855 23.4227 63.6214 23.1574L64.361 25.4915C63.8009 26.0248 62.8844 26.408 61.44 26.408C59.0496 26.408 57.782 25.1083 57.782 22.7447ZM47.3945 23.3372C44.6503 23.3372 42.5252 22.067 41.1693 20.6172L39.2532 23.2782C40.9924 25.138 43.6186 26.4083 47.2471 26.4083C52.5558 26.4083 54.8551 23.6025 54.8551 20.3224C54.8551 16.0374 50.9935 15.0324 47.7482 14.2044L47.7312 14.2001C45.407 13.6123 43.4096 13.1072 43.4096 11.5754C43.4096 10.0989 44.7093 9.12341 46.746 9.12341C48.8094 9.12341 50.9024 9.83356 52.4379 11.3691L54.413 8.79647C52.5853 7.0251 50.1065 6.04965 47.0381 6.04965C42.7316 6.04965 39.8722 8.56064 39.8722 11.8113C39.8722 15.9784 43.6481 16.9244 46.8639 17.7203L46.9105 17.7324C49.2788 18.349 51.3446 18.8868 51.3446 20.6467C51.3446 21.9464 50.2244 23.3372 47.3945 23.3372ZM75.8461 16.1261C75.1386 15.0622 73.6326 14.2046 72.1587 14.2046C69.7093 14.2046 68.147 16.1555 68.147 18.9318C68.147 21.6814 69.7093 23.6617 72.1587 23.6617C73.6326 23.6617 75.1386 22.8337 75.8461 21.7698V16.1261ZM75.8459 24.1039C74.7552 25.5216 73.1017 26.4086 71.2714 26.4086C67.6161 26.4086 64.9309 23.6323 64.9309 18.9319C64.9309 14.3226 67.5866 11.4284 71.2714 11.4284C73.0428 11.4284 74.7257 12.2564 75.8459 13.7625V11.7821H78.9437V26.0549H75.8459V24.1039ZM85.0644 11.782H81.9665V26.0547H85.0644V16.3323C85.6834 15.3274 87.4414 14.443 88.926 14.443C90.4106 14.443 91.0002 14.7325 91.0002 14.7325V11.6587C91.0002 11.6587 90.3972 11.4577 89.6951 11.4577C87.8353 11.4577 86.1256 12.5216 85.0644 13.8803V11.782Z" fill="black"/>
</svg>
